<svg xmlns="http://www.w3.org/2000/svg" width="57.277" height="90" viewBox="0 0 57.277 90"><path d="M1779.21,2060.281a30.3,30.3,0,0,1-54.914,1.56,27.115,27.115,0,0,0,12.6,10.965c13.309,5.74,28.5.19,33.926-12.4a24.33,24.33,0,0,0-1.571-22.047,18.12,18.12,0,0,0,5.923-8.924C1781.515,2037.849,1783.681,2049.915,1779.21,2060.281ZM1741.46,2043c1.066-.025,2.108-.049,3.128-.081v18.421h4.971v-18.673a39.684,39.684,0,0,0,7.985-1.346,20.659,20.659,0,0,0,5.887-2.51l.02-.012v0a20.774,20.774,0,0,0-9.74-38.352h-7.73v24.186l6.461-13.906c7.568,0,14.374,4.795,14.374,12.045-.166,3-1.464,9.569-9.285,13.32-3.239,1.554-7.955,2.584-14.31,3.238-11.178,1.15-12.4,8.631-12.4,8.631S1732.975,2043.193,1741.46,2043Zm5.613,39.039a4.2,4.2,0,1,0,4.291,4.2A4.247,4.247,0,0,0,1747.074,2082.037Z" transform="translate(-1724.296 -2000.443)" fill="#0baa0b"/></svg>